<svg width="38" height="37" viewBox="0 0 38 37" fill="none" xmlns="http://www.w3.org/2000/svg">
<g id="logo googleg 48dp">
<path id="Shape" fill-rule="evenodd" clip-rule="evenodd" d="M36.4422 18.9124C36.4422 17.624 36.3265 16.3852 36.1118 15.196H19V22.2241H28.7782C28.357 24.4952 27.0769 26.4194 25.1527 27.7078V32.2665H31.0245C34.4601 29.1035 36.4422 24.4456 36.4422 18.9124Z" fill="#4285F4"/>
<path id="Shape_2" fill-rule="evenodd" clip-rule="evenodd" d="M19.0001 36.6682C23.9057 36.6682 28.0185 35.0412 31.0246 32.2663L25.1527 27.7076C23.5258 28.7977 21.4446 29.4419 19.0001 29.4419C14.2679 29.4419 10.2625 26.2458 8.83374 21.9514H2.76367V26.6588C5.75328 32.5967 11.8977 36.6682 19.0001 36.6682Z" fill="#34A853"/>
<path id="Shape_3" fill-rule="evenodd" clip-rule="evenodd" d="M8.83364 21.9519C8.47026 20.8617 8.26379 19.6973 8.26379 18.4998C8.26379 17.3023 8.47026 16.1378 8.83364 15.0477V10.3403H2.76357C1.53304 12.7931 0.831055 15.568 0.831055 18.4998C0.831055 21.4316 1.53304 24.2065 2.76357 26.6593L8.83364 21.9519Z" fill="#FBBC05"/>
<path id="Shape_4" fill-rule="evenodd" clip-rule="evenodd" d="M19.0001 7.5569C21.6676 7.5569 24.0626 8.4736 25.9456 10.274L31.1567 5.0628C28.0102 2.131 23.8974 0.330627 19.0001 0.330627C11.8977 0.330627 5.75328 4.40212 2.76367 10.34L8.83374 15.0474C10.2625 10.753 14.2679 7.5569 19.0001 7.5569Z" fill="#EA4335"/>
</g>
</svg>
